<?xml version="1.0" encoding="UTF-8"?>
<svg width="207px" height="171px" viewBox="0 0 207 171" version="1.1" xmlns="http://www.w3.org/2000/svg" xmlns:xlink="http://www.w3.org/1999/xlink">
    <!-- Generator: Sketch Beta 52 (66869) - http://www.bohemiancoding.com/sketch -->
    <title>Group 3</title>
    <desc>Created with Sketch Beta.</desc>
    <g id="Page-1" stroke="none" stroke-width="1" fill="none" fill-rule="evenodd">
        <g id="Group-3">
            <g id="Group-2">
                <g id="confetti">
                    <path d="M28.2754962,59.6427993 C28.2754962,59.8238857 28.2150785,60.0049721 28.1546608,60.1860585 C27.7921544,61.1518527 26.7046353,61.6347498 25.7379517,61.2423959 C18.8805397,58.5562808 7.79388678,55.7494415 4.68237384,57.8621163 C4.31986748,58.1035648 3.95736112,58.4657376 3.95736112,59.3711697 C3.95736112,61.1216717 7.64284246,61.272577 7.70326019,61.272577 C8.73036155,61.272577 9.57620973,62.1176469 9.57620973,63.1438033 C9.54600086,64.2001407 8.73036155,65.0150295 7.70326019,65.0150295 C5.10529793,65.0150295 0.211462044,63.8077868 0.241670908,59.3711697 C0.241670908,57.3792192 1.05731022,55.8098036 2.59796226,54.7836473 C8.45848178,50.7997462 24.0462553,56.5643303 27.1275594,57.7715731 C27.882781,58.0733837 28.335914,58.8580915 28.2754962,59.6427993 Z" id="Shape" fill="#00A3DE"></path>
                    <path d="M34.2998851,95.5754167 C34.5113471,96.2695813 34.4811382,97.054289 34.1186319,97.7484536 C32.9706951,99.9516716 31.430043,101.61163 29.6175112,102.486881 C27.7143528,103.422494 25.6299412,103.422494 23.908036,102.547243 C20.8569408,100.977828 19.1652445,96.6619352 21.8538333,91.4707914 C22.8809347,89.4486598 22.578846,88.241417 22.2767574,88.0905117 C21.9746688,87.9396063 20.7965231,88.3621413 19.7694217,90.3842729 C18.6214849,92.5874909 17.0808329,94.2474497 15.2683011,95.1227007 C13.3651427,96.0583138 11.2807311,96.0583138 9.55882588,95.1830628 C6.50773068,93.6136472 4.81603428,89.2977544 7.50462308,84.1066106 C8.25984468,82.6277383 8.25984468,81.6921251 8.16921808,81.2695902 C8.10880038,80.9375984 7.98796498,80.756512 7.89733838,80.7263309 C7.59524968,80.5754256 6.41710408,80.9979606 5.39000268,83.0200922 C4.66498998,84.4084213 2.94308478,84.9818616 1.55347698,84.257516 C0.163869278,83.5331703 -0.410099122,81.8128494 0.314913578,80.4245203 C2.97329358,75.2031954 7.47441428,74.0864959 10.5255095,75.6559114 C13.5766047,77.225327 15.2683011,81.5412198 12.5797122,86.7323636 C11.8244906,88.211236 11.8244906,89.1468491 11.9151172,89.569384 C11.9755349,89.9013758 12.0963704,90.0824622 12.186997,90.1126433 C12.4890856,90.2635486 13.6672313,89.8410137 14.6943327,87.788701 C17.3829215,82.5975572 21.8538333,81.4506766 24.9049285,83.0200922 C27.9560237,84.5895077 29.6477201,88.9054005 26.9591312,94.0965443 C26.2039097,95.5754167 26.2039097,96.5110298 26.2945362,96.9335648 C26.354954,97.2655565 26.4757894,97.4466429 26.566416,97.476824 C26.8685046,97.6277294 28.0466503,97.2051944 29.0737517,95.1830628 C29.7987644,93.7947336 31.5206696,93.2212933 32.9102773,93.945639 C33.5748723,94.2474497 34.0582142,94.8812521 34.2998851,95.5754167 Z" id="Shape" fill="#00A3DE"></path>
                    <path d="M179.229187,41.2021664 C178.836472,41.0512611 178.473966,40.7796314 178.292712,40.3570965 C177.688535,39.0593105 177.477073,37.7615246 177.688535,36.644825 C177.930206,35.4375823 178.655219,34.5019692 179.68232,34.0190721 C181.464643,33.1740021 184.032396,33.8983478 185.482422,36.9768168 C186.05639,38.1538785 186.720985,38.4556892 186.902238,38.3651459 C187.083492,38.2746027 187.294954,37.5804382 186.720985,36.4033765 C186.116808,35.1055905 185.905346,33.8078046 186.116808,32.6911051 C186.358479,31.4838623 187.083492,30.5180681 188.110593,30.0653521 C189.892916,29.2202822 192.460669,29.9446278 193.910695,33.0230968 C194.333619,33.8983478 194.756543,34.2303396 194.968005,34.3208828 C195.149258,34.411426 195.270094,34.411426 195.330511,34.3812449 C195.511765,34.2907017 195.723227,33.5965371 195.149258,32.4194754 C194.756543,31.6045866 195.119049,30.6086113 195.934689,30.2162574 C196.750328,29.8239035 197.74722,30.1860764 198.139936,31.0009652 C199.589961,34.0492531 198.532651,36.5241008 196.750328,37.3691707 C194.968005,38.2142406 192.400252,37.489895 190.950226,34.411426 C190.527302,33.536175 190.104378,33.2343643 189.892916,33.11364 C189.711663,33.0230968 189.590827,33.0230968 189.53041,33.0532779 C189.349156,33.1438211 189.137694,33.8379857 189.711663,35.0150473 C191.161688,38.0633353 190.104378,40.5381829 188.322055,41.3832528 C186.539732,42.2283227 183.971979,41.5039771 182.521953,38.4255081 C182.099029,37.5502571 181.676105,37.2484464 181.464643,37.1277221 C181.28339,37.0371789 181.162554,37.0371789 181.102137,37.06736 C180.920883,37.1579032 180.709421,37.8520678 181.28339,39.0291295 C181.676105,39.8440183 181.313599,40.8399936 180.497959,41.2323475 C180.105244,41.3530717 179.652111,41.3530717 179.229187,41.2021664 Z" id="Shape" fill="#FFCD4E"></path>
                    <path d="M176.661434,88.4657198 C180.256288,86.2021397 183.488637,87.1377528 184.817827,89.2504276 C186.147017,91.3631024 185.603257,94.652839 182.008403,96.916419 C180.618795,97.79167 180.377124,98.666921 180.497959,98.878188 C180.649004,99.089456 181.525061,99.240361 182.914668,98.36511 C186.509523,96.10153 189.741872,97.037143 191.071062,99.149818 C192.400252,101.262493 191.856492,104.552229 188.261637,106.81581 C186.87203,107.69106 186.630359,108.566311 186.751194,108.777579 C186.87203,108.988846 187.778295,109.139752 189.167903,108.264501 C190.134587,107.660879 191.403359,107.932509 192.037745,108.898303 C192.641923,109.864097 192.370043,111.131702 191.37315,111.765505 C187.778295,114.029085 184.545947,113.093472 183.216757,110.980797 C181.887567,108.868122 182.431327,105.578386 186.026181,103.314806 C187.415789,102.439555 187.65746,101.564304 187.536625,101.353036 C187.415789,101.141769 186.509523,100.990863 185.119915,101.866114 C181.525061,104.129694 178.292712,103.194081 176.963522,101.081406 C175.634332,98.968732 176.178092,95.678995 179.772947,93.4154151 C181.162554,92.5401641 181.404225,91.6649131 181.28339,91.4536456 C181.132346,91.2423781 180.256288,91.0914728 178.866681,91.9667238 C177.899997,92.5703451 176.631225,92.2987155 175.996839,91.3329213 C175.392661,90.3369461 175.664541,89.0693412 176.661434,88.4657198 Z" id="Shape" fill="#00A3DE"></path>
                    <path d="M172.341566,58.3148323 C171.586345,58.2242891 170.891541,57.8017541 170.438408,57.1075895 C169.683186,55.9003468 170.045693,54.3007502 171.254047,53.5462234 C171.858224,53.1538696 186.449105,44.2504543 204.997348,49.1397874 C206.386955,49.5019603 207.202595,50.9204705 206.840088,52.3087996 C206.477582,53.6971288 205.057765,54.5120176 203.668158,54.1498448 C187.294954,49.833952 174.123889,57.8621163 174.003054,57.9526595 C173.489503,58.2544701 172.885326,58.3751944 172.341566,58.3148323 Z" id="Shape" fill="#00A3DE"></path>
                    <ellipse id="Oval" fill="#00A3DE" cx="162.342432" cy="39.8741994" rx="2.14482931" ry="2.14285587"></ellipse>
                    <ellipse id="Oval" fill="#00A3DE" cx="202.701474" cy="92.4496209" rx="3.38339271" ry="3.38027968"></ellipse>
                    <ellipse id="Oval" fill="#00A3DE" cx="69.6616392" cy="13.5261265" rx="2.38650022" ry="2.38430442"></ellipse>
                    <ellipse id="Oval" fill="#00A3DE" cx="165.031021" cy="4.501987" rx="4.28965862" ry="4.28571174"></ellipse>
                    <ellipse id="Oval" fill="#00A3DE" cx="60.629189" cy="27.3188748" rx="4.28965862" ry="4.28571174"></ellipse>
                </g>
                <g id="governance" transform="translate(35.000000, 15.000000)"></g>
            </g>
            <g id="cb-164-[Converted]" transform="translate(103.519868, 90.116694) rotate(-1.000000) translate(-103.519868, -90.116694) translate(39.019868, 31.116694)">
                <path d="M17.02,68.03 C14.810861,68.03 13.02,66.239139 13.02,64.03 C13.02,61.820861 14.810861,60.03 17.02,60.03 C19.229139,60.03 21.02,61.820861 21.02,64.03 C21.02,66.239139 19.229139,68.03 17.02,68.03 Z M17.02,62.03 C15.9154305,62.03 15.02,62.9254305 15.02,64.03 C15.02,65.1345695 15.9154305,66.03 17.02,66.03 C18.1245695,66.03 19.02,65.1345695 19.02,64.03 C19.02,62.9254305 18.1245695,62.03 17.02,62.03 Z" id="Shape" fill="#FEDE31" fill-rule="nonzero"></path>
                <path d="M107.02,48.03 C104.810861,48.03 103.02,46.239139 103.02,44.03 C103.02,41.820861 104.810861,40.03 107.02,40.03 C109.229139,40.03 111.02,41.820861 111.02,44.03 C111.02,46.239139 109.229139,48.03 107.02,48.03 Z M107.02,42.03 C105.915431,42.03 105.02,42.9254305 105.02,44.03 C105.02,45.1345695 105.915431,46.03 107.02,46.03 C108.124569,46.03 109.02,45.1345695 109.02,44.03 C109.02,42.9254305 108.124569,42.03 107.02,42.03 Z" id="Shape" fill="#5FE0ED" fill-rule="nonzero"></path>
                <path d="M94.14,111.03 C91.930861,111.03 90.14,109.239139 90.14,107.03 C90.14,104.820861 91.930861,103.03 94.14,103.03 C96.349139,103.03 98.14,104.820861 98.14,107.03 C98.14,109.239139 96.349139,111.03 94.14,111.03 Z M94.14,105.03 C93.0354305,105.03 92.14,105.925431 92.14,107.03 C92.14,108.134569 93.0354305,109.03 94.14,109.03 C95.2445695,109.03 96.14,108.134569 96.14,107.03 C96.14,105.925431 95.2445695,105.03 94.14,105.03 Z" id="Shape" fill="#DEDEDD" fill-rule="nonzero"></path>
                <path d="M121.02,94.94 L91.02,94.94 L91.02,90.94 C91.02,87.6262915 88.3337085,84.94 85.02,84.94 L84.02,84.94 L84.02,78.94 L128.02,78.94 L128.02,84.94 L127.02,84.94 C123.706292,84.94 121.02,87.6262915 121.02,90.94 L121.02,94.94 Z M93.02,92.94 L119.02,92.94 L119.02,90.94 C119.018616,86.9073329 122.018962,83.5040832 126.02,83 L126.02,80.94 L86.02,80.94 L86.02,83.03 C90.0210381,83.5340832 93.0213842,86.9373329 93.02,90.97 L93.02,92.94 Z" id="Shape" fill="#353535" fill-rule="nonzero"></path>
                <polygon id="Path" fill="#353535" points="124.13 74.94 122.13 74.94 122.13 74.05 108.24 9.05 105.83 9.05 90.13 74.05 90.13 74.93 88.13 74.93 88.16 73.7 104.26 7.05 109.86 7.05 124.13 73.94"></polygon>
                <rect id="Rectangle" fill="#353535" x="88.13" y="76.94" width="2" height="3"></rect>
                <rect id="Rectangle" fill="#353535" x="122.21" y="76.95" width="2" height="2.99"></rect>
                <path d="M64.02,23.03 C60.1540068,23.03 57.02,19.8959932 57.02,16.03 C57.02,12.1640068 60.1540068,9.03 64.02,9.03 C67.8859932,9.03 71.02,12.1640068 71.02,16.03 C71.02,17.8865154 70.2825021,19.6669928 68.9697475,20.9797475 C67.6569928,22.2925021 65.8765154,23.03 64.02,23.03 Z M64.02,11.03 C61.2585763,11.03 59.02,13.2685763 59.02,16.03 C59.02,18.7914237 61.2585763,21.03 64.02,21.03 C66.7814237,21.03 69.02,18.7914237 69.02,16.03 C69.02,13.2685763 66.7814237,11.03 64.02,11.03 Z" id="Shape" fill="#353535" fill-rule="nonzero"></path>
                <path d="M37.02,94.94 L7.02,94.94 L7.02,90.94 C7.02,87.6262915 4.3337085,84.94 1.02,84.94 L0.02,84.94 L0.02,78.94 L44.02,78.94 L44.02,84.94 L43.02,84.94 C39.7062915,84.94 37.02,87.6262915 37.02,90.94 L37.02,94.94 Z M9.02,92.94 L35.02,92.94 L35.02,90.94 C35.0337023,86.9187658 38.0302793,83.5326338 42.02,83.03 L42.02,80.97 L2.02,80.97 L2.02,83.03 C6.02103814,83.5340832 9.02138422,86.9373329 9.02,90.97 L9.02,92.94 Z" id="Shape" fill="#353535" fill-rule="nonzero"></path>
                <polygon id="Path" fill="#353535" points="40.07 74.94 38.07 74.94 38.07 74.05 24.19 9.05 21.78 9.05 6.08 74.05 6.08 74.93 4.08 74.93 4.11 73.7 20.21 7.05 25.8 7.05 40.07 73.94"></polygon>
                <rect id="Rectangle" fill="#353535" x="4.08" y="76.94" width="2" height="3"></rect>
                <rect id="Rectangle" fill="#353535" x="38.16" y="76.95" width="2" height="2.99"></rect>
                <path d="M95.02,90.94 L117.02,90.94 C117.02,87.792427 118.501942,84.8285438 121.02,82.94 L91.02,82.94 C93.5380584,84.8285438 95.02,87.792427 95.02,90.94 Z" id="Path" fill="#DEDEDD"></path>
                <path d="M11.02,90.94 L33.02,90.94 C33.02,87.792427 34.5019416,84.8285438 37.02,82.94 L7.02,82.94 C9.53805843,84.8285438 11.02,87.792427 11.02,90.94 Z" id="Path" fill="#DEDEDD"></path>
                <path d="M64.02,13.03 C62.3631458,13.03 61.02,14.3731458 61.02,16.03 C61.02,17.6868542 62.3631458,19.03 64.02,19.03 C65.6768542,19.03 67.02,17.6868542 67.02,16.03 C67.02,14.3731458 65.6768542,13.03 64.02,13.03 Z" id="Path" fill="#DEDEDD"></path>
                <rect id="Rectangle" fill="#353535" x="106.8" y="100.06" width="2" height="8"></rect>
                <rect id="Rectangle" fill="#353535" x="103.8" y="103.06" width="8" height="2"></rect>
                <path d="M82.02,117.03 L46.02,117.03 L46.02,111.03 L82.02,111.03 L82.02,117.03 Z M48.02,115.03 L80.02,115.03 L80.02,113.03 L48.02,113.03 L48.02,115.03 Z" id="Shape" fill="#353535" fill-rule="nonzero"></path>
                <path d="M79.02,112.03 L77.02,112.03 L77.02,109.03 L76.02,109.03 C74.3631458,109.03 73.02,107.686854 73.02,106.03 L73.02,105.03 L55.02,105.03 L55.02,106.03 C55.02,107.686854 53.6768542,109.03 52.02,109.03 L51.02,109.03 L51.02,112.03 L49.02,112.03 L49.02,107.03 L52.02,107.03 C52.5722847,107.03 53.02,106.582285 53.02,106.03 L53.02,103.03 L75.02,103.03 L75.02,106.03 C75.02,106.582285 75.4677153,107.03 76.02,107.03 L79.02,107.03 L79.02,112.03 Z" id="Path" fill="#353535"></path>
                <path d="M75.02,36.03 L53.02,36.03 L53.02,33.03 C53.02,32.4777153 52.5722847,32.03 52.02,32.03 L50.02,32.03 L50.02,26.17 L78.02,26.17 L78.02,32.03 L76.02,32.03 C75.4677153,32.03 75.02,32.4777153 75.02,33.03 L75.02,36.03 Z M55.02,34.03 L73.02,34.03 L73.02,33.03 C73.02,31.3731458 74.3631458,30.03 76.02,30.03 L76.02,28.17 L52.02,28.17 L52.02,30.03 C53.6768542,30.03 55.02,31.3731458 55.02,33.03 L55.02,34.03 Z" id="Shape" fill="#353535" fill-rule="nonzero"></path>
                <path d="M73.02,105.03 L55.02,105.03 L55.02,34.03 L73.02,34.03 L73.02,105.03 Z M57.02,103.03 L71.02,103.03 L71.02,36.03 L57.02,36.03 L57.02,103.03 Z" id="Shape" fill="#353535" fill-rule="nonzero"></path>
                <rect id="Rectangle" fill="#DEDEDD" x="57.01" y="30.05" width="14" height="1.96"></rect>
                <rect id="Rectangle" fill="#DEDEDD" x="57.01" y="107.09" width="14" height="1.96"></rect>
                <path d="M59.02,38.03 L59.02,101.03 L69.02,101.03 L69.02,38.03 L59.02,38.03 Z M62.02,99.03 C61.4677153,99.03 61.02,98.5822847 61.02,98.03 L61.02,41.03 C61.02,40.4777153 61.4677153,40.03 62.02,40.03 C62.5722847,40.03 63.02,40.4777153 63.02,41.03 L63.02,98.03 C63.02,98.5822847 62.5722847,99.03 62.02,99.03 Z M66.02,99.03 C65.4677153,99.03 65.02,98.5822847 65.02,98.03 L65.02,41.03 C65.02,40.4777153 65.4677153,40.03 66.02,40.03 C66.5722847,40.03 67.02,40.4777153 67.02,41.03 L67.02,98.03 C67.02,98.5822847 66.5722847,99.03 66.02,99.03 Z" id="Shape" fill="#DEDEDD" fill-rule="nonzero"></path>
                <polygon id="Path" fill="#353535" points="58.37 19.06 3.02 19.06 3.02 13.06 58.37 13.06 58.37 15.06 5.02 15.06 5.02 17.06 58.37 17.06"></polygon>
                <polygon id="Path" fill="#353535" points="125.02 19.06 70.02 19.06 70.02 17.06 123.02 17.06 123.02 15.06 69.67 15.06 69.67 13.06 125.02 13.06"></polygon>
                <rect id="Rectangle" fill="#353535" x="38.75" y="-1.20792265e-13" width="2" height="8"></rect>
                <rect id="Rectangle" fill="#353535" x="35.75" y="3" width="8" height="2"></rect>
                <rect id="Rectangle" fill="#353535" x="19.74" y="103.06" width="2" height="8"></rect>
                <rect id="Rectangle" fill="#353535" x="16.74" y="106.06" width="8" height="2"></rect>
            </g>
            <g id="Group" transform="translate(33.000000, 69.000000)">
                <rect id="Rectangle-path" fill="#010101" transform="translate(152.510180, 8.032571) rotate(-75.220275) translate(-152.510180, -8.032571) " x="145.456511" y="7.65531346" width="14.1073391" height="1"></rect>
                <polygon id="Shape" fill="#FFFFFF" points="166.505603 18.8329868 145.087519 13.189127 147.98757 2.26358014 164.602445 6.63983509 167.351452 13.4305755"></polygon>
                <rect id="Rectangle-path" fill="#4473B9" transform="translate(155.853104, 15.793271) rotate(14.779725) translate(-155.853104, -15.793271) " x="144.781713" y="15.1142067" width="22.1427827" height="1.35812881"></rect>
                <rect id="Rectangle-path" fill="#F15F5E" transform="translate(156.840613, 11.128358) rotate(14.779725) translate(-156.840613, -11.128358) " x="145.995785" y="10.6756481" width="21.6896562" height="1"></rect>
                <g transform="translate(144.906266, 8.148889)">
                    <rect id="Rectangle-path" fill="#F15F5E" transform="translate(1.873116, 2.199140) rotate(14.779725) translate(-1.873116, -2.199140) " x="0.966862767" y="0.841011665" width="1.81250609" height="2.71625763"></rect>
                    <path d="M2.29587363,4.10462533 L0.543759543,3.6519093 C0.332297498,3.59154716 0.211462044,3.38027968 0.271879771,3.19919327 L0.966683632,0.573440303 C1.02710136,0.362172823 1.2385634,0.241448549 1.41981658,0.301810686 L3.17193067,0.754526715 C3.38339271,0.814888852 3.50422817,1.02615633 3.44381044,1.20724274 L2.74900658,3.83299571 C2.71879771,4.04426319 2.50733567,4.16498747 2.29587363,4.10462533 Z M1.11772795,3.01810686 L2.14482931,3.28973648 L2.65837999,1.38832916 L1.63127863,1.11669954 L1.11772795,3.01810686 Z" id="Shape" fill="#010101" fill-rule="nonzero"></path>
                </g>
                <path d="M166.294141,19.6176946 L144.453133,13.8531105 C144.241671,13.7927483 144.120835,13.5814809 144.181253,13.4003945 L144.876057,10.7746415 C144.936475,10.563374 145.147937,10.4426497 145.32919,10.5030119 L145.389608,10.5331929 L147.594855,2.17303694 C147.655272,1.96176946 147.866735,1.84104518 148.047988,1.90140732 L164.662863,6.27766227 C164.783698,6.30784334 164.874325,6.39838654 164.904534,6.48892975 L167.774376,13.3098512 C167.804584,13.4003945 167.804584,13.4607566 167.804584,13.5512998 L167.079572,16.2374149 L167.139989,16.267596 C167.351452,16.3279581 167.472287,16.5392256 167.411869,16.720312 L166.717065,19.346065 C166.717065,19.5573324 166.505603,19.6780567 166.294141,19.6176946 Z M144.996892,13.2494891 L166.112888,18.8329868 L166.626439,16.9315795 L166.566021,16.9013984 C166.354559,16.8410363 166.233724,16.6297688 166.294141,16.4486824 L167.079572,13.5211187 L164.330565,6.97182684 L148.25945,2.74647724 L146.054203,11.1066332 C145.993785,11.3179007 145.782323,11.438625 145.60107,11.3782629 L145.540652,11.3480818 L144.996892,13.2494891 Z" id="Shape" fill="#010101" fill-rule="nonzero"></path>
                <polygon id="Shape" fill="#76CABB" points="165.448293 8.72232882 161.521141 7.69617249 161.339888 11.86116 167.472287 13.4607566"></polygon>
                <polygon id="Shape" fill="#FFFFFF" points="164.572236 8.51106134 163.696179 8.26961279 165.720173 13.0080406 166.59623 13.2494891"></polygon>
                <path d="M167.351452,13.8229294 L161.219052,12.2233328 C161.037799,12.1931517 160.947172,12.0120653 160.947172,11.86116 L161.098217,7.69617249 C161.098217,7.57544822 161.158635,7.48490501 161.249261,7.42454287 C161.339888,7.36418074 161.460723,7.33399967 161.581559,7.36418074 L165.508711,8.39033707 C165.629546,8.42051814 165.720173,8.51106134 165.750382,8.60160455 L167.774376,13.3400323 C167.834793,13.4607566 167.804584,13.6116619 167.713958,13.7323862 C167.65354,13.8229294 167.502496,13.8832916 167.351452,13.8229294 Z M161.732603,11.5593493 L166.807692,12.8873163 L165.146204,9.02413951 L161.853438,8.14888852 L161.732603,11.5593493 Z" id="Shape" fill="#010101" fill-rule="nonzero"></path>
                <g transform="translate(153.062659, 5.432592)">
                    <rect id="Rectangle-path" fill="#76CABB" transform="translate(3.361585, 3.018415) rotate(-75.220275) translate(-3.361585, -3.018415) " x="1.32251535" y="0.528512167" width="4.0781387" height="4.97980565"></rect>
                    <rect id="Rectangle-path" fill="#FFFFFF" transform="translate(4.450242, 3.311089) rotate(-75.220275) translate(-4.450242, -3.311089) " x="2.41117244" y="2.85837891" width="4.0781387" height="1"></rect>
                    <path d="M5.13550679,5.97585158 L0.332297498,4.7082467 C0.120835454,4.64788456 -2.72219747e-13,4.43661708 0.060417727,4.25553067 L1.08751909,0.331991754 C1.14793681,0.120724274 1.35939886,6.4358241e-14 1.54065204,0.0603621372 L6.34386133,1.32796702 C6.55532338,1.38832916 6.67615883,1.59959664 6.61574111,1.78068305 L5.58863975,5.70422196 C5.55843088,5.91548944 5.34696884,6.03621372 5.13550679,5.97585158 Z M0.906265905,4.10462533 L4.98446248,5.1911438 L5.83031065,1.99195053 L1.75211408,0.905432058 L0.906265905,4.10462533 Z" id="Shape" fill="#010101" fill-rule="nonzero"></path>
                </g>
                <g id="Group-Copy" transform="translate(153.062659, 5.432592)">
                    <rect id="Rectangle-path" fill="#76CABB" transform="translate(3.361585, 3.018415) rotate(-75.220275) translate(-3.361585, -3.018415) " x="1.32251535" y="0.528512167" width="4.0781387" height="4.97980565"></rect>
                    <rect id="Rectangle-path" fill="#FFFFFF" transform="translate(4.450242, 3.311089) rotate(-75.220275) translate(-4.450242, -3.311089) " x="2.41117244" y="2.85837891" width="4.0781387" height="1"></rect>
                    <path d="M5.13550679,5.97585158 L0.332297498,4.7082467 C0.120835454,4.64788456 -2.72219747e-13,4.43661708 0.060417727,4.25553067 L1.08751909,0.331991754 C1.14793681,0.120724274 1.35939886,6.4358241e-14 1.54065204,0.0603621372 L6.34386133,1.32796702 C6.55532338,1.38832916 6.67615883,1.59959664 6.61574111,1.78068305 L5.58863975,5.70422196 C5.55843088,5.91548944 5.34696884,6.03621372 5.13550679,5.97585158 Z M0.906265905,4.10462533 L4.98446248,5.1911438 L5.83031065,1.99195053 L1.75211408,0.905432058 L0.906265905,4.10462533 Z" id="Shape" fill="#010101" fill-rule="nonzero"></path>
                </g>
                <g transform="translate(146.114620, 3.621728)">
                    <rect id="Rectangle-path" fill="#76CABB" transform="translate(3.521372, 3.035515) rotate(-75.220275) translate(-3.521372, -3.035515) " x="1.48230286" y="0.545612551" width="4.0781387" height="4.97980565"></rect>
                    <rect id="Rectangle-path" fill="#FFFFFF" transform="translate(4.580790, 3.320490) rotate(-75.220275) translate(-4.580790, -3.320490) " x="2.54172073" y="2.8677804" width="4.0781387" height="1"></rect>
                    <path d="M5.28655111,6.00603265 L0.302088635,4.67806563 C0.0906265905,4.61770349 -0.0302088635,4.40643601 0.0302088635,4.2253496 L1.05731022,0.301810686 C1.11772795,0.0905432058 1.32918999,-0.0301810686 1.51044317,0.0301810686 L6.49490565,1.35814809 C6.7063677,1.41851022 6.82720315,1.6297777 6.76678542,1.81086412 L5.73968406,5.73440303 C5.7094752,5.94567051 5.49801316,6.06639479 5.28655111,6.00603265 Z M0.845848178,4.07444426 L5.10529793,5.1911438 L5.95114611,1.99195053 L1.69169636,0.875250989 L0.845848178,4.07444426 Z" id="Shape" fill="#010101" fill-rule="nonzero"></path>
                </g>
                <path d="M147.20214,12.2535138 L145.450025,11.8007978 C145.238563,11.7404357 145.117728,11.5291682 145.178146,11.3480818 C145.238563,11.1368143 145.450025,11.01609 145.631279,11.0764522 L147.383393,11.5291682 C147.594855,11.5895303 147.71569,11.8007978 147.655272,11.9818842 C147.625064,12.1931517 147.413602,12.313876 147.20214,12.2535138 Z" id="Shape" fill="#010101"></path>
                <path d="M166.86811,17.4446576 L165.115996,16.9919416 C164.904534,16.9315795 164.783698,16.720312 164.844116,16.5392256 C164.904534,16.3279581 165.115996,16.2072338 165.297249,16.267596 L167.049363,16.720312 C167.260825,16.7806741 167.38166,16.9919416 167.321243,17.173028 C167.291034,17.3842955 167.079572,17.5050198 166.86811,17.4446576 Z" id="Shape" fill="#010101"></path>
                <path d="M160.765919,15.8148799 L151.582425,13.4003945 C151.370963,13.3400323 151.250127,13.1287648 151.310545,12.9476784 C151.370963,12.7364109 151.582425,12.6156867 151.763678,12.6760488 L160.947172,15.0905343 C161.158635,15.1508964 161.27947,15.3621639 161.219052,15.5432503 C161.158635,15.7545178 160.947172,15.8752421 160.765919,15.8148799 Z" id="Shape" fill="#010101"></path>
                <path d="M0.287432438,101.03767 C0.075970338,100.977308 -0.044865062,100.76604 0.015552638,100.584954 L0.347850138,99.287168 C0.408267838,99.0759005 0.619729938,98.9551762 0.800983038,99.0155383 C1.01244514,99.0759005 1.13328054,99.287168 1.07286284,99.4682544 L0.740565338,100.76604 C0.710356438,100.977308 0.498894438,101.098032 0.287432438,101.03767 Z" id="Shape" fill="#010101"></path>
                <path d="M160.101324,5.70422196 C160.040907,5.70422196 160.010698,5.67404089 159.980489,5.61367876 L158.228375,3.41046075 C158.137748,3.28973648 158.167957,3.13883113 158.258584,3.04828793 C158.379419,2.95774472 158.530463,2.98792579 158.62109,3.078469 L160.373204,5.281687 C160.463831,5.40241128 160.433622,5.55331662 160.342995,5.64385983 C160.252369,5.73440303 160.161742,5.73440303 160.101324,5.70422196 Z" id="Shape" fill="#010101"></path>
                <path d="M157.926286,5.13078166 C157.865868,5.13078166 157.83566,5.10060059 157.805451,5.04023845 L156.053337,2.83702045 C155.96271,2.71629617 155.992919,2.56539083 156.083545,2.47484762 C156.204381,2.38430442 156.355425,2.41448549 156.446052,2.50502869 L158.198166,4.7082467 C158.288792,4.82897097 158.258584,4.97987632 158.167957,5.07041952 C158.07733,5.16096273 157.986704,5.16096273 157.926286,5.13078166 Z" id="Shape" fill="#010101"></path>
                <path d="M158.34921,3.50100396 C158.288792,3.47082289 158.228375,3.44064182 158.198166,3.38027968 C158.137748,3.25955541 158.167957,3.10865006 158.288792,3.04828793 L159.648191,2.26358014 C159.769027,2.20321801 159.920071,2.23339908 159.980489,2.35412335 C160.040907,2.47484762 160.010698,2.62575297 159.889862,2.6861151 L158.530463,3.47082289 C158.470046,3.53118503 158.409628,3.53118503 158.34921,3.50100396 Z" id="Shape" fill="#010101"></path>
                <path d="M156.174172,2.92756365 C156.113754,2.89738258 156.053337,2.86720152 156.023128,2.80683938 C155.96271,2.6861151 155.992919,2.53520976 156.113754,2.47484762 L157.473153,1.69013984 C157.593989,1.6297777 157.745033,1.65995877 157.805451,1.78068305 C157.865868,1.90140732 157.83566,2.05231266 157.714824,2.1126748 L156.355425,2.89738258 C156.295007,2.95774472 156.23459,2.95774472 156.174172,2.92756365 Z" id="Shape" fill="#010101"></path>
                <path d="M162.971166,3.56136609 L151.673051,0.573440303 C151.552216,0.543259235 151.461589,0.392353892 151.491798,0.271629617 C151.522007,0.150905343 151.673051,0.0603621372 151.793887,0.0905432058 L163.092002,3.078469 C163.212837,3.10865006 163.303464,3.25955541 163.273255,3.38027968 C163.243046,3.53118503 163.122211,3.62172823 162.971166,3.56136609 Z" id="Shape" fill="#010101"></path>
            </g>
        </g>
    </g>
</svg>