<?xml version="1.0" encoding="UTF-8"?>
<svg width="72px" height="72px" viewBox="0 0 72 72" version="1.1" xmlns="http://www.w3.org/2000/svg" xmlns:xlink="http://www.w3.org/1999/xlink">
    <!-- Generator: Sketch Beta 52 (66869) - http://www.bohemiancoding.com/sketch -->
    <title>Group 2</title>
    <desc>Created with Sketch Beta.</desc>
    <g id="Page-1" stroke="none" stroke-width="1" fill="none" fill-rule="evenodd">
        <g id="1" transform="translate(-8.000000, -500.000000)">
            <g id="Clipped" transform="translate(0.000000, 5.000000)">
                <g id="Group" transform="translate(7.000000, 32.000000)">
                    <g id="Group-2" transform="translate(0.000000, 459.000000)">
                        <g id="Group" transform="translate(63.376936, 17.306862) rotate(19.000000) translate(-63.376936, -17.306862) translate(50.876936, 3.306862)">
                            <path d="M10.4772623,25.9988541 C10.6337209,25.9988541 11,25.54509 11,24.6656354 L11,22.3326458 C11,21.4531912 10.6332029,21 10.4772623,21 L2,21 C2.06994013,21.2291738 2.13003684,21.4709522 2.18029012,21.7247622 L6.74867603,21.7247622 C7.09941285,21.7247622 7.38435413,22.0404492 7.38435413,22.4283259 C7.38435413,22.8162026 7.09941285,23.1318895 6.74867603,23.1318895 L2.34037532,23.1318895 C2.37923095,24.1414003 2.25851946,25.1526298 2,26 L10.4772623,26 L10.4772623,25.9988541 Z M3.59722542,23.8681105 L9.62554686,23.8681105 C9.97628367,23.8681105 10.261743,24.1837974 10.261743,24.5716741 C10.261743,24.9589779 9.97628367,25.2746648 9.62554686,25.2746648 L3.59722542,25.2746648 C3.2464886,25.2746648 2.96154732,24.9589779 2.96154732,24.5716741 C2.96154732,24.1837974 3.2464886,23.8681105 3.59722542,23.8681105 Z" id="Shape" fill="#FFC153" fill-rule="nonzero"></path>
                            <path d="M19.7694158,15.6306306 C19.835297,15.4129129 19.9126813,15.2020771 20,15 L6.19997909,15 C5.5385527,15 5,15.6525275 5,16.4552052 L5,18.5441692 C5,19.3468468 5.5385527,20 6.19997909,20 L14.4597044,20 L17.6078848,20 L19.9994771,20 C19.6240588,19.1328829 19.4515128,18.1525275 19.5022309,17.1665415 L9.99651422,17.1665415 C9.64253346,17.1665415 9.35495678,16.8218218 9.35495678,16.3982733 C9.35495678,15.9747247 9.64253346,15.630005 9.99651422,15.630005 L19.7694158,15.630005 L19.7694158,15.6306306 Z M17.0876325,17.8340841 C17.4416132,17.8340841 17.7297128,18.1781782 17.7297128,18.6017267 C17.7297128,19.0252753 17.4416132,19.369995 17.0876325,19.369995 L6.57382878,19.369995 C6.21984802,19.369995 5.93227133,19.0252753 5.93227133,18.6017267 C5.93227133,18.1781782 6.21984802,17.8340841 6.57382878,17.8340841 L17.0876325,17.8340841 Z" id="Shape" fill="#FFC153" fill-rule="nonzero"></path>
                            <path d="M11.0558453,9.73187077 C10.9083385,9.59758488 10.822658,9.38762091 10.825579,9.16969084 L10.8859448,5 L9,11.5356262 L13.4315321,10.1597648 C13.4811878,10.1444016 13.5327909,10.1364355 13.5848807,10.1364355 C13.7192433,10.1364355 13.850685,10.1899222 13.9553516,10.2872226 C14.1013979,10.4203705 14.1870784,10.6320415 14.1822102,10.8522476 L14.117463,14 L14.3740177,14 L16,8.48119112 L11.5767439,9.85648353 C11.5270881,9.87184675 11.4754851,9.87981286 11.4238821,9.87981286 C11.2914667,9.87924385 11.1609987,9.82746412 11.0558453,9.73187077 Z" id="Path" fill="#F9635C"></path>
                            <path d="M12,26 L14.5053763,26 C14.6544477,26 15,25.5461318 15,24.6664756 L15,22.3329513 C15,21.4532951 14.6544477,21 14.5068426,21 L12.0004888,21 C12.1353861,21.4022923 12.2077224,21.8613181 12.2077224,22.3329513 L12.2077224,24.6664756 C12.2072336,25.1381089 12.1348974,25.5965616 12,26 Z" id="Path" fill="#58DDF0"></path>
                            <path d="M23.4856764,21 L19,21 C19.1406871,21.4022923 19.216128,21.8613181 19.216128,22.3329513 L19.216128,24.6664756 C19.216128,25.1455587 19.1422163,25.5982808 19.0010195,26 L23.4856764,26 C23.6396167,26 24,25.5461318 24,24.6664756 L24,22.3329513 C24,21.4532951 23.6396167,21 23.4856764,21 Z" id="Path" fill="#58DDF0"></path>
                            <path d="M16,26 L17.4939819,26 C17.6454363,26 18,25.5461318 18,24.6664756 L18,22.3329513 C18,21.4532951 17.6449348,21 17.4939819,21 L16,21 C16.1374122,21.4017192 16.2111334,21.860745 16.2111334,22.3329513 L16.2111334,24.6664756 C16.2111334,25.1386819 16.1374122,25.5977077 16,26 Z" id="Path" fill="#F9635C"></path>
                            <g fill="#1A171B">
                                <path d="M23.4770408,20.2777143 L21.1581633,20.2777143 C19.9469388,18.7862857 19.977551,16.4611429 21.2561224,15.016 C21.3617347,14.8971429 21.3826531,14.7182857 21.325,14.564 C21.2673469,14.4091429 21.122449,14.3085714 20.972449,14.3085714 L15.8321429,14.3085714 L17.8954082,7.59942857 C17.9403061,7.45428571 17.9096939,7.29371429 17.8163265,7.18171429 C17.7229592,7.06914286 17.5826531,7.024 17.4494898,7.06285714 L12.152551,8.64114286 L12.2755102,0.492 C12.2785714,0.287428571 12.1479592,0.110285714 11.9673469,0.0754285714 C11.7841837,0.04 11.6107143,0.158857143 11.552551,0.352571429 L7.91632653,12.4285714 C7.87295918,12.5737143 7.90408163,12.7337143 7.99693878,12.8451429 C8.09030612,12.9565714 8.23061224,13.0017143 8.36326531,12.9628571 L13.6561224,11.3885714 L13.5933673,14.3085714 L6.30459184,14.3085714 C5.10867347,14.3085714 4.13622449,15.4062857 4.13622449,16.7542857 L4.13622449,18.6622857 C4.13622449,19.284 4.34897959,19.8457143 4.68877551,20.2777143 L0.870408163,20.2777143 C0.735204082,20.2777143 0.61122449,20.36 0.545408163,20.492 C0.480102041,20.624 0.484183673,20.7868571 0.556122449,20.9142857 C1.41479592,22.4422857 1.41479592,25.332 0.556122449,26.86 C0.484183673,26.9885714 0.485714286,27.1497143 0.551530612,27.2817143 C0.616326531,27.4142857 0.74744898,27.4965714 0.882142857,27.4965714 L10.1938776,27.4965714 C10.1943878,27.4965714 10.194898,27.4971429 10.1959184,27.4971429 L23.4765306,27.4965714 C24.3244898,27.4965714 24.9887755,26.4222857 24.9887755,25.0502857 L24.9887755,22.7234286 C24.9892857,21.352 24.325,20.2777143 23.4770408,20.2777143 Z M8.84081633,11.9605714 L11.4933673,3.15085714 L11.402551,9.17657143 C11.4005102,9.30685714 11.4535714,9.43028571 11.544898,9.51085714 C11.6367347,9.59085714 11.7571429,9.61828571 11.8688776,9.58514286 L16.9673469,8.06628571 L15.0479592,14.3085714 L14.3357143,14.3085714 L14.4096939,10.8542857 C14.4127551,10.7234286 14.3602041,10.5982857 14.2683673,10.5177143 C14.202551,10.4588571 14.1209184,10.4285714 14.0387755,10.4285714 C14.0066327,10.4285714 13.975,10.4331429 13.9433673,10.4422857 L8.84081633,11.9605714 Z M4.87857143,16.7542857 C4.87857143,15.8634286 5.51836735,15.1394286 6.30459184,15.1394286 L20.2147959,15.1394286 C20.002551,15.4994286 19.8418367,15.8868571 19.7280612,16.2868571 L10.0091837,16.2868571 C9.80459184,16.2868571 9.63826531,16.4725714 9.63826531,16.7028571 C9.63826531,16.9331429 9.80459184,17.1188571 10.0091837,17.1188571 L19.5647959,17.1188571 C19.4418367,18.2057143 19.6576531,19.3331429 20.2147959,20.2782857 L17.4362245,20.2782857 L14.3642857,20.2782857 L6.30459184,20.2782857 C5.51836735,20.2782857 4.87857143,19.5531429 4.87857143,18.6628571 L4.87857143,16.7542857 Z M10.9668367,25.0502857 C10.9668367,26.0022857 10.5612245,26.6657143 10.1969388,26.6657143 L1.47857143,26.6657143 C1.85255102,25.6765714 1.99540816,24.4262857 1.9122449,23.2337143 L6.5244898,23.2337143 C6.72908163,23.2337143 6.89540816,23.048 6.89540816,22.8177143 C6.89540816,22.5874286 6.72908163,22.4017143 6.5244898,22.4017143 L1.81683673,22.4017143 C1.74030612,21.9422857 1.62806122,21.504 1.47857143,21.1074286 L10.1964286,21.1074286 C10.5607143,21.1074286 10.9663265,21.7702857 10.9663265,22.7222857 L10.9663265,25.0502857 L10.9668367,25.0502857 Z M15.1341837,25.0502857 C15.1341837,26.0022857 14.7285714,26.6657143 14.3642857,26.6657143 C14.3637755,26.6657143 14.3632653,26.6657143 14.3627551,26.6657143 L11.3392857,26.6657143 C11.569898,26.2377143 11.7091837,25.676 11.7091837,25.0502857 L11.7091837,22.7234286 C11.7091837,22.0982857 11.5704082,21.5365714 11.3397959,21.1085714 L14.3647959,21.1085714 C14.7285714,21.1085714 15.1346939,21.7714286 15.1346939,22.7234286 L15.1346939,25.0502857 L15.1341837,25.0502857 Z M18.2061224,25.0502857 C18.2061224,26.0022857 17.8005102,26.6657143 17.4362245,26.6657143 L15.5086735,26.6657143 C15.7387755,26.2377143 15.8760204,25.6748571 15.8760204,25.0502857 L15.8760204,22.7234286 C15.8760204,22.0988571 15.7382653,21.5365714 15.5086735,21.1085714 L17.4362245,21.1085714 C17.8005102,21.1085714 18.2061224,21.7714286 18.2061224,22.7234286 L18.2061224,25.0502857 Z M24.2469388,25.0502857 C24.2469388,26.0022857 23.8413265,26.6657143 23.4770408,26.6657143 L18.5785714,26.6657143 C18.8091837,26.2371429 18.9479592,25.676 18.9479592,25.0502857 L18.9479592,22.7234286 C18.9479592,22.0982857 18.8091837,21.5365714 18.5785714,21.1085714 L23.4770408,21.1085714 C23.8413265,21.1085714 24.2469388,21.7714286 24.2469388,22.7234286 L24.2469388,25.0502857 Z" id="Shape" fill-rule="nonzero"></path>
                                <path d="M6.66938776,19.1297143 L16.9285714,19.1297143 C17.1331633,19.1297143 17.3,18.9434286 17.3,18.7137143 C17.3,18.484 17.1336735,18.2982857 16.9285714,18.2982857 L6.66938776,18.2982857 C6.46479592,18.2982857 6.29846939,18.484 6.29846939,18.7137143 C6.29846939,18.9434286 6.46428571,19.1297143 6.66938776,19.1297143 Z" id="Path"></path>
                                <path d="M9.35765306,24.5411429 L3.42091837,24.5411429 C3.21581633,24.5411429 3.05,24.7268571 3.05,24.9571429 C3.05,25.1862857 3.21581633,25.3725714 3.42091837,25.3725714 L9.35765306,25.3725714 C9.5627551,25.3725714 9.72908163,25.1868571 9.72908163,24.9571429 C9.72857143,24.7268571 9.5627551,24.5411429 9.35765306,24.5411429 Z" id="Path"></path>
                            </g>
                        </g>
                        <g id="Group" transform="translate(25.288991, 49.056855) rotate(-11.000000) translate(-25.288991, -49.056855) translate(4.288991, 24.556855)">
                            <path d="M36.362,26.686 L35.453,26.161 C35.245,26.383 35.029,26.599 34.805,26.809 L35.33,27.717 C35.596,28.178 35.667,28.715 35.529,29.23 C35.39,29.746 35.06,30.174 34.599,30.439 L32.612,31.587 C32.308,31.762 31.965,31.855 31.617,31.855 C31.443,31.855 31.269,31.832 31.1,31.787 C30.584,31.648 30.155,31.318 29.889,30.857 L29.367,29.952 C29.074,30.042 28.777,30.121 28.48,30.191 L28.48,31.236 C28.48,32.335 27.586,33.228 26.487,33.228 L24.192,33.228 C23.093,33.228 22.199,32.334 22.199,31.236 L22.199,30.191 C21.902,30.121 21.605,30.042 21.312,29.952 L20.79,30.857 C20.435,31.471 19.772,31.853 19.061,31.853 C18.713,31.853 18.371,31.761 18.069,31.587 L16.08,30.439 C15.62,30.174 15.289,29.745 15.152,29.23 C15.014,28.714 15.085,28.177 15.352,27.717 L15.876,26.809 C15.653,26.6 15.437,26.383 15.229,26.161 L14.32,26.686 C14.016,26.861 13.673,26.954 13.325,26.954 C13.151,26.954 12.977,26.932 12.807,26.886 C12.293,26.747 11.864,26.418 11.599,25.957 L10.45,23.968 C9.901,23.018 10.228,21.797 11.179,21.246 L12.086,20.723 C11.996,20.43 11.917,20.133 11.847,19.836 L10.8,19.836 C9.701,19.836 8.808,18.942 8.808,17.844 L8.808,15.549 C8.808,14.451 9.702,13.557 10.8,13.557 L11.845,13.557 C11.914,13.26 11.994,12.963 12.084,12.669 L11.178,12.147 C10.227,11.596 9.901,10.376 10.449,9.426 L11.597,7.436 C11.863,6.976 12.292,6.647 12.806,6.508 C12.978,6.462 13.152,6.44 13.326,6.44 C13.674,6.44 14.017,6.533 14.32,6.709 L15.229,7.233 C15.437,7.01 15.653,6.794 15.876,6.585 L15.351,5.676 C15.051,5.155 15.015,4.542 15.209,4.005 L6.959,4.005 L6.959,36.202 L38.041,36.202 L38.041,26.833 C37.987,26.854 37.931,26.871 37.875,26.887 C37.703,26.932 37.53,26.954 37.357,26.954 C37.008,26.953 36.665,26.861 36.362,26.686 Z" id="Path" fill="#FFC153"></path>
                            <path d="M2.296,7.406 L2.296,37.302 C2.956,36.829 3.709,36.497 4.504,36.33 L4.504,4.227 C3.195,4.715 2.296,5.969 2.296,7.406 Z" id="Path" fill="#58DDF0"></path>
                            <path d="M2.296,42.058 L2.296,43.306 C2.296,45.183 3.822,46.708 5.698,46.708 L37.257,46.708 C36.211,43.983 36.238,41.446 37.343,38.655 L5.731,38.655 C3.822,38.656 2.296,40.182 2.296,42.058 Z M11.063,40.083 L32.378,40.083 C33.055,40.083 33.605,40.634 33.605,41.311 C33.605,41.988 33.055,42.539 32.378,42.539 L11.063,42.539 C10.386,42.539 9.835,41.988 9.835,41.311 C9.835,40.634 10.386,40.083 11.063,40.083 Z M7.184,43.574 L26.85,43.574 C27.527,43.574 28.078,44.125 28.078,44.802 C28.078,45.478 27.527,46.029 26.85,46.029 L7.184,46.029 C6.507,46.029 5.956,45.478 5.956,44.802 C5.956,44.125 6.507,43.574 7.184,43.574 Z" id="Shape" fill="#64B110" fill-rule="nonzero"></path>
                            <path d="M25.365,10.743 C22.069,10.743 19.388,13.425 19.388,16.721 C19.388,20.017 22.069,22.698 25.365,22.698 C28.66,22.698 31.342,20.017 31.342,16.721 C31.342,13.425 28.66,10.743 25.365,10.743 Z" id="Path" fill="#FFC153"></path>
                            <path d="M36.61,14.967 C36.486,14.154 36.268,13.343 35.963,12.558 C35.741,11.992 35.963,11.357 36.492,11.049 L37.849,10.266 L37.197,9.092 L35.797,9.867 C35.616,9.971 35.405,10.026 35.191,10.026 C34.816,10.026 34.467,9.859 34.233,9.567 C33.716,8.922 33.122,8.328 32.467,7.8 C31.999,7.426 31.873,6.75 32.174,6.231 L32.958,4.873 L31.806,4.183 L30.982,5.552 C30.767,5.924 30.36,6.158 29.925,6.158 C29.771,6.158 29.619,6.13 29.476,6.072 C28.687,5.766 27.876,5.548 27.07,5.426 C26.466,5.334 26.027,4.824 26.027,4.212 L26.027,2.647 L24.684,2.626 L24.655,4.223 C24.655,4.815 24.206,5.337 23.612,5.427 C22.805,5.548 21.995,5.766 21.202,6.074 C21.062,6.13 20.91,6.159 20.755,6.159 C20.319,6.159 19.913,5.924 19.694,5.544 L18.91,4.187 L17.736,4.84 L18.511,6.239 C18.812,6.76 18.688,7.421 18.212,7.802 C17.559,8.327 16.965,8.922 16.448,9.568 C16.214,9.86 15.865,10.027 15.49,10.027 C15.276,10.027 15.065,9.971 14.879,9.865 L13.517,9.079 L12.827,10.23 L14.197,11.054 C14.719,11.357 14.941,11.992 14.718,12.559 C14.412,13.343 14.195,14.154 14.072,14.967 C13.98,15.571 13.469,16.01 12.858,16.01 L11.293,16.01 L11.272,17.353 L12.868,17.381 C13.47,17.381 13.98,17.819 14.072,18.424 C14.196,19.237 14.413,20.047 14.719,20.833 C14.938,21.393 14.711,22.041 14.189,22.343 L12.832,23.126 L13.484,24.3 L14.884,23.525 C15.063,23.422 15.276,23.366 15.49,23.366 C15.865,23.366 16.214,23.533 16.448,23.826 C16.969,24.475 17.563,25.068 18.212,25.589 C18.688,25.971 18.812,26.632 18.507,27.16 L17.722,28.519 L18.874,29.209 L19.698,27.839 C19.91,27.469 20.318,27.233 20.757,27.233 C20.908,27.233 21.057,27.261 21.201,27.316 C21.988,27.624 22.798,27.841 23.612,27.964 C24.206,28.054 24.655,28.576 24.655,29.178 L24.655,30.744 L25.998,30.765 L26.027,29.168 C26.027,28.575 26.476,28.053 27.07,27.963 C27.883,27.84 28.694,27.622 29.478,27.316 C29.623,27.26 29.772,27.233 29.924,27.233 C30.362,27.233 30.769,27.468 30.987,27.847 L31.771,29.203 L32.945,28.551 L32.17,27.152 C31.874,26.639 32.001,25.964 32.469,25.588 C33.118,25.067 33.712,24.474 34.234,23.824 C34.466,23.532 34.816,23.365 35.191,23.365 C35.406,23.365 35.618,23.422 35.804,23.528 L37.164,24.313 L37.854,23.162 L36.485,22.338 C35.972,22.042 35.744,21.394 35.963,20.833 C36.27,20.046 36.487,19.235 36.61,18.425 C36.701,17.821 37.211,17.381 37.823,17.381 L39.388,17.381 L39.41,16.01 L37.822,16.01 C37.211,16.01 36.701,15.572 36.61,14.967 Z M25.365,25.152 C20.716,25.152 16.933,21.37 16.933,16.72 C16.933,12.072 20.715,8.288 25.365,8.288 C30.014,8.288 33.796,12.071 33.796,16.72 C33.796,21.37 30.014,25.152 25.365,25.152 Z" id="Shape" fill="#7CBB34" fill-rule="nonzero"></path>
                            <g fill="#1A171B">
                                <path d="M32.377,40.583 L11.063,40.583 C10.661,40.583 10.335,40.908 10.335,41.311 C10.335,41.714 10.661,42.039 11.063,42.039 L32.378,42.039 C32.779,42.039 33.105,41.714 33.105,41.311 C33.105,40.908 32.779,40.583 32.377,40.583 Z" id="Path"></path>
                                <path d="M26.85,44.074 L7.184,44.074 C6.782,44.074 6.456,44.399 6.456,44.802 C6.456,45.203 6.782,45.529 7.184,45.529 L26.85,45.529 C27.251,45.529 27.578,45.204 27.578,44.802 C27.577,44.399 27.251,44.074 26.85,44.074 Z" id="Path"></path>
                                <path d="M39.88,14.056 L38.433,14.056 C38.323,13.511 38.177,12.97 37.998,12.437 L39.253,11.712 C39.965,11.3 40.21,10.386 39.799,9.673 L38.651,7.686 C38.241,6.974 37.326,6.728 36.612,7.139 L35.354,7.866 C34.985,7.448 34.589,7.053 34.17,6.682 L34.897,5.423 C35.096,5.078 35.149,4.677 35.046,4.291 C34.943,3.905 34.696,3.584 34.351,3.385 L32.363,2.238 C32.018,2.038 31.615,1.986 31.23,2.089 C30.845,2.192 30.523,2.439 30.324,2.784 L29.599,4.04 C29.066,3.859 28.525,3.714 27.981,3.604 L27.981,2.156 C27.981,1.334 27.312,0.664 26.488,0.664 L24.193,0.664 C23.37,0.664 22.7,1.334 22.7,2.156 L22.7,3.603 C22.156,3.713 21.615,3.859 21.081,4.04 L20.356,2.784 C20.157,2.438 19.861,2.221 19.476,2.119 C19.288,2.069 19.085,2.049 18.887,2.049 L5.731,2.049 C5.725,2.049 5.72,2.053 5.714,2.053 C5.708,2.053 5.704,2.049 5.698,2.049 C2.744,2.049 0.341,4.452 0.341,7.406 L0.341,42.058 L0.341,43.306 C0.341,46.26 2.744,48.663 5.698,48.663 L39.171,48.663 C39.426,48.663 39.663,48.529 39.795,48.309 C39.926,48.09 39.934,47.819 39.814,47.594 C37.966,44.123 37.993,41.368 39.911,37.769 C39.918,37.756 39.92,37.744 39.926,37.731 C39.934,37.712 39.94,37.695 39.947,37.676 C39.974,37.601 39.991,37.526 39.993,37.448 C39.993,37.44 39.997,37.434 39.997,37.427 L39.997,23.68 C39.997,23.59 39.985,22.728 39.95,22.589 C39.851,22.219 39.612,21.885 39.255,21.678 L38,20.953 C38.179,20.421 38.325,19.88 38.435,19.335 L39.882,19.335 C40.705,19.335 41.375,18.666 41.375,17.843 L41.375,15.548 C41.373,14.725 40.703,14.056 39.88,14.056 Z M1.796,7.406 C1.796,5.492 3.184,3.902 5.004,3.574 L5.004,36.752 C3.745,36.916 2.624,37.518 1.796,38.4 L1.796,7.406 Z M38.005,47.208 L5.698,47.208 C3.546,47.208 1.796,45.458 1.796,43.306 L1.796,42.058 C1.796,39.907 3.546,38.156 5.698,38.156 L5.731,38.156 L38.098,38.156 C36.65,41.351 36.622,44.103 38.005,47.208 Z M6.458,36.701 L6.458,3.504 L16.166,3.504 C15.586,3.953 15.406,4.772 15.783,5.425 L16.509,6.683 C16.09,7.053 15.695,7.449 15.326,7.867 L14.068,7.14 C13.723,6.94 13.322,6.888 12.936,6.991 C12.551,7.095 12.229,7.342 12.03,7.686 L10.882,9.675 C10.471,10.387 10.716,11.301 11.428,11.713 L12.683,12.438 C12.503,12.971 12.358,13.512 12.248,14.057 L10.8,14.057 C9.977,14.057 9.308,14.726 9.308,15.549 L9.308,17.844 C9.308,18.667 9.977,19.336 10.8,19.336 L12.248,19.336 C12.358,19.881 12.503,20.422 12.683,20.954 L11.428,21.679 C10.716,22.091 10.47,23.006 10.882,23.718 L12.03,25.707 C12.229,26.053 12.551,26.299 12.936,26.402 C13.321,26.506 13.724,26.452 14.069,26.253 L15.327,25.526 C15.697,25.945 16.092,26.34 16.51,26.711 L15.784,27.968 C15.584,28.313 15.532,28.715 15.635,29.101 C15.738,29.486 15.985,29.808 16.33,30.006 L18.319,31.154 C19.031,31.565 19.946,31.319 20.358,30.607 L21.082,29.352 C21.615,29.532 22.156,29.677 22.701,29.788 L22.701,31.236 C22.701,32.059 23.37,32.728 24.194,32.728 L26.489,32.728 C27.312,32.728 27.982,32.059 27.982,31.236 L27.982,29.788 C28.527,29.678 29.067,29.532 29.6,29.352 L30.325,30.607 C30.524,30.953 30.846,31.2 31.231,31.303 C31.615,31.406 32.018,31.353 32.363,31.154 L34.351,30.006 C34.696,29.808 34.943,29.485 35.047,29.101 C35.151,28.715 35.097,28.313 34.898,27.968 L34.171,26.711 C34.589,26.341 34.985,25.945 35.355,25.526 L36.613,26.253 C36.958,26.452 37.36,26.504 37.746,26.402 C38.076,26.314 38.342,26.103 38.542,25.833 L38.542,36.701 L6.458,36.701 Z M39.88,17.881 L37.823,17.881 C37.464,17.881 37.158,18.144 37.104,18.499 C36.975,19.35 36.747,20.195 36.428,21.015 C36.298,21.349 36.43,21.73 36.742,21.91 L38.538,22.991 L37.339,24.993 L35.554,23.963 C35.243,23.784 34.847,23.857 34.623,24.138 C34.078,24.817 33.458,25.436 32.781,25.979 C32.501,26.204 32.427,26.6 32.606,26.911 L33.623,28.747 L31.583,29.882 L30.553,28.099 C30.373,27.787 29.994,27.656 29.658,27.785 C28.84,28.104 27.993,28.332 27.143,28.461 C26.788,28.515 26.525,28.821 26.525,29.181 L26.487,31.277 L24.154,31.239 L24.154,29.181 C24.154,28.822 23.891,28.515 23.536,28.461 C22.685,28.332 21.839,28.105 21.021,27.785 C20.935,27.752 20.845,27.735 20.757,27.735 C20.503,27.735 20.259,27.868 20.127,28.099 L19.045,29.896 L17.044,28.697 L18.074,26.912 C18.253,26.601 18.179,26.205 17.9,25.98 C17.222,25.437 16.602,24.818 16.058,24.139 C15.833,23.858 15.438,23.785 15.127,23.964 L13.29,24.981 L12.156,22.941 L13.939,21.912 C14.25,21.732 14.384,21.351 14.253,21.017 C13.934,20.198 13.706,19.352 13.577,18.501 C13.523,18.146 13.217,17.883 12.858,17.883 L10.763,17.845 L10.801,15.512 L12.859,15.512 C13.218,15.512 13.524,15.249 13.578,14.894 C13.707,14.043 13.934,13.197 14.254,12.378 C14.385,12.044 14.251,11.664 13.94,11.483 L12.143,10.402 L13.343,8.4 L15.129,9.431 C15.44,9.608 15.835,9.537 16.06,9.256 C16.602,8.578 17.222,7.959 17.902,7.412 C18.182,7.188 18.256,6.793 18.076,6.482 L17.059,4.645 L19.099,3.511 L20.129,5.294 C20.309,5.606 20.688,5.741 21.023,5.607 C21.845,5.288 22.691,5.059 23.539,4.931 C23.894,4.877 24.157,4.572 24.157,4.212 L24.195,2.117 L26.528,2.154 L26.528,4.212 C26.528,4.571 26.791,4.877 27.146,4.931 C27.993,5.059 28.839,5.287 29.661,5.607 C29.996,5.74 30.375,5.604 30.555,5.294 L31.636,3.497 L33.639,4.696 L32.608,6.481 C32.428,6.792 32.503,7.187 32.782,7.411 C33.461,7.958 34.081,8.577 34.624,9.255 C34.849,9.536 35.245,9.607 35.555,9.43 L37.392,8.412 L38.526,10.452 L36.743,11.481 C36.431,11.662 36.298,12.042 36.429,12.376 C36.748,13.194 36.975,14.041 37.105,14.892 C37.159,15.247 37.464,15.51 37.824,15.51 L39.881,15.51 L39.919,15.548 L39.88,17.881 Z" id="Shape" fill-rule="nonzero"></path>
                                <path d="M25.365,8.789 C20.991,8.789 17.433,12.347 17.433,16.721 C17.433,21.094 20.991,24.653 25.365,24.653 C29.738,24.653 33.296,21.094 33.296,16.721 C33.296,12.346 29.738,8.789 25.365,8.789 Z M25.365,23.197 C21.794,23.197 18.888,20.292 18.888,16.72 C18.888,13.148 21.794,10.242 25.365,10.242 C28.936,10.242 31.842,13.147 31.842,16.72 C31.841,20.292 28.936,23.197 25.365,23.197 Z" id="Shape" fill-rule="nonzero"></path>
                            </g>
                        </g>
                    </g>
                </g>
            </g>
        </g>
    </g>
</svg>